<?xml version="1.0" standalone="no"?>
<!DOCTYPE svg PUBLIC "-//W3C//DTD SVG 20010904//EN"
 "http://www.w3.org/TR/2001/REC-SVG-20010904/DTD/svg10.dtd">
<svg version="1.0" xmlns="http://www.w3.org/2000/svg"
 width="500.000000pt" height="500.000000pt" viewBox="0 0 500.000000 500.000000"
 preserveAspectRatio="xMidYMid meet">
<metadata>
Created by potrace 1.14, written by Peter Selinger 2001-2017
</metadata>
<g transform="translate(0.000000,500.000000) scale(0.100000,-0.100000)"
fill="#000000" stroke="none">
<path d="M2790 4045 l0 -955 954 0 954 0 0 955 0 955 -954 0 -954 0 0 -955z
m1445 496 c10 -1 13 -976 3 -987 -7 -6 -979 -7 -985 0 -6 6 -6 974 0 983 4 6
913 9 982 4z"/>
<path d="M1139 4365 c0 -11 -2 -171 -2 -357 -1 -185 -5 -339 -8 -343 -4 -3
-167 -6 -363 -6 l-356 0 0 -228 0 -228 343 0 c188 -1 351 -2 363 -2 21 -1 21
-2 20 -348 -1 -192 1 -355 5 -363 6 -13 41 -15 226 -14 l218 0 3 362 c2 279 5
362 15 363 6 0 170 1 363 2 l351 1 0 227 0 228 -351 0 c-193 0 -357 0 -363 1
-10 0 -13 79 -13 363 l0 362 -225 0 c-220 1 -225 0 -226 -20z"/>
<path d="M3318 2605 c-2 -2 -32 -6 -67 -9 -229 -24 -425 -117 -594 -284 -142
-139 -245 -339 -277 -537 -11 -67 -16 -268 -6 -283 2 -4 7 -28 10 -54 10 -72
44 -174 88 -263 165 -332 509 -546 878 -546 311 1 603 145 787 389 90 120 162
283 191 437 8 40 8 282 0 320 -45 224 -129 386 -278 536 -159 160 -369 262
-585 284 -75 8 -144 12 -147 10z m180 -481 c152 -44 269 -143 334 -284 23 -48
32 -77 45 -140 9 -44 2 -164 -12 -220 -58 -226 -269 -391 -500 -393 -101 0
-172 16 -257 60 -171 89 -279 262 -282 452 -1 94 7 142 34 210 50 127 143 226
272 288 105 50 250 61 366 27z"/>
<path d="M1307 1747 c-174 -340 -335 -656 -444 -867 -61 -118 -175 -341 -253
-495 -79 -154 -154 -299 -166 -323 -13 -23 -24 -47 -24 -52 0 -6 357 -10 980
-10 539 0 980 3 980 6 0 3 -44 92 -99 197 -54 106 -151 296 -216 422 -65 127
-159 311 -210 410 -83 162 -208 405 -385 750 -33 66 -64 123 -68 127 -4 4 -47
-70 -95 -165z m223 -1042 c69 -135 126 -249 128 -254 2 -5 -111 -9 -261 -9
l-265 0 33 62 c17 33 76 148 130 254 54 105 101 192 104 192 3 0 62 -110 131
-245z"/>
</g>
</svg>
