<svg xmlns="http://www.w3.org/2000/svg" xmlns:xlink="http://www.w3.org/1999/xlink" width="200" zoomAndPan="magnify" viewBox="0 0 150 30.000001" height="40" preserveAspectRatio="xMidYMid meet" version="1.0"><defs><g/><clipPath id="4f032346c2"><path d="M 6.339844 17 L 18 17 L 18 29.03125 L 6.339844 29.03125 Z M 6.339844 17 " clip-rule="nonzero"/></clipPath><clipPath id="4ba8b72fca"><path d="M 6.339844 3 L 18 3 L 18 15 L 6.339844 15 Z M 6.339844 3 " clip-rule="nonzero"/></clipPath><clipPath id="19c1142d6c"><path d="M 20 0 L 31.015625 0 L 31.015625 12 L 20 12 Z M 20 0 " clip-rule="nonzero"/></clipPath></defs><g clip-path="url(#4f032346c2)"><path fill="#ff3399" d="M 6.347656 29.03125 L 12.023438 17.855469 L 17.699219 29.03125 Z M 10.492188 26.476562 L 13.558594 26.476562 L 12.023438 23.457031 Z M 10.492188 26.476562 " fill-opacity="1" fill-rule="evenodd"/></g><g clip-path="url(#4ba8b72fca)"><path fill="#4ee6b3" d="M 17.3125 7.789062 L 17.3125 10.4375 L 13.140625 10.4375 L 13.140625 14.652344 L 10.515625 14.652344 L 10.515625 10.4375 L 6.34375 10.4375 L 6.34375 7.789062 L 10.515625 7.789062 L 10.515625 3.570312 L 13.140625 3.570312 L 13.140625 7.789062 Z M 17.3125 7.789062 " fill-opacity="1" fill-rule="evenodd"/></g><path fill="#00a2e9" d="M 23.269531 13.917969 C 26.40625 13.917969 28.945312 16.484375 28.945312 19.652344 C 28.945312 22.816406 26.40625 25.386719 23.269531 25.386719 C 20.136719 25.386719 17.59375 22.816406 17.59375 19.652344 C 17.59375 16.484375 20.136719 13.917969 23.269531 13.917969 Z M 23.269531 16.566406 C 21.582031 16.566406 20.21875 17.949219 20.21875 19.652344 C 20.21875 21.355469 21.582031 22.734375 23.269531 22.734375 C 24.957031 22.734375 26.324219 21.355469 26.324219 19.652344 C 26.324219 17.949219 24.957031 16.566406 23.269531 16.566406 Z M 23.269531 16.566406 " fill-opacity="1" fill-rule="evenodd"/><g clip-path="url(#19c1142d6c)"><path fill="#ffcc00" d="M 20.042969 0 L 31.011719 0 L 31.011719 11.082031 L 20.042969 11.082031 Z M 22.664062 2.648438 L 22.664062 8.433594 L 28.386719 8.433594 L 28.386719 2.648438 Z M 22.664062 2.648438 " fill-opacity="1" fill-rule="evenodd"/></g><g fill="#ff00ff" fill-opacity="1"><g transform="translate(36.729048, 20.882096)"><g><path d="M 11.578125 0 L 5.6875 0 C 4.125 0 2.960938 -0.3125 2.203125 -0.9375 C 1.453125 -1.5625 1.078125 -2.519531 1.078125 -3.8125 L 1.078125 -9.65625 C 1.078125 -10.945312 1.453125 -11.90625 2.203125 -12.53125 C 2.960938 -13.15625 4.125 -13.46875 5.6875 -13.46875 L 10.359375 -13.46875 C 10.597656 -13.46875 10.769531 -13.410156 10.875 -13.296875 C 10.976562 -13.191406 11.03125 -13.023438 11.03125 -12.796875 L 11.03125 -10.53125 C 11.03125 -10.289062 10.976562 -10.117188 10.875 -10.015625 C 10.769531 -9.910156 10.597656 -9.859375 10.359375 -9.859375 L 6.46875 -9.859375 C 6.082031 -9.859375 5.796875 -9.78125 5.609375 -9.625 C 5.421875 -9.46875 5.328125 -9.234375 5.328125 -8.921875 L 5.328125 -4.453125 C 5.328125 -4.140625 5.398438 -3.90625 5.546875 -3.75 C 5.691406 -3.601562 5.90625 -3.53125 6.1875 -3.53125 L 8 -3.53125 L 8 -6.453125 C 8 -6.691406 8.050781 -6.863281 8.15625 -6.96875 C 8.269531 -7.070312 8.441406 -7.125 8.671875 -7.125 L 11.578125 -7.125 C 11.816406 -7.125 11.988281 -7.070312 12.09375 -6.96875 C 12.195312 -6.863281 12.25 -6.691406 12.25 -6.453125 L 12.25 -0.671875 C 12.25 -0.429688 12.195312 -0.257812 12.09375 -0.15625 C 11.988281 -0.0507812 11.816406 0 11.578125 0 Z M 11.578125 0 "/></g></g></g><g fill="#ff00ff" fill-opacity="1"><g transform="translate(49.97026, 20.882096)"><g><path d="M 6.171875 -9.53125 L 5.296875 -6.703125 L 8.234375 -6.703125 L 7.34375 -9.53125 C 7.300781 -9.644531 7.25 -9.726562 7.1875 -9.78125 C 7.132812 -9.832031 7.070312 -9.859375 7 -9.859375 L 6.53125 -9.859375 C 6.457031 -9.859375 6.390625 -9.832031 6.328125 -9.78125 C 6.273438 -9.726562 6.222656 -9.644531 6.171875 -9.53125 Z M 5.109375 -0.671875 C 5.109375 -0.429688 5.050781 -0.257812 4.9375 -0.15625 C 4.832031 -0.0507812 4.664062 0 4.4375 0 L 1.6875 0 C 1.445312 0 1.273438 -0.0507812 1.171875 -0.15625 C 1.066406 -0.257812 1.015625 -0.429688 1.015625 -0.671875 L 1.015625 -5.609375 C 1.015625 -5.984375 1.070312 -6.410156 1.1875 -6.890625 C 1.300781 -7.378906 1.484375 -7.953125 1.734375 -8.609375 L 3.359375 -12.84375 C 3.441406 -13.0625 3.5625 -13.21875 3.71875 -13.3125 C 3.875 -13.414062 4.078125 -13.46875 4.328125 -13.46875 L 9.359375 -13.46875 C 9.585938 -13.46875 9.78125 -13.414062 9.9375 -13.3125 C 10.09375 -13.21875 10.207031 -13.0625 10.28125 -12.84375 L 11.90625 -8.609375 C 12.15625 -7.953125 12.335938 -7.378906 12.453125 -6.890625 C 12.578125 -6.410156 12.640625 -5.984375 12.640625 -5.609375 L 12.640625 -0.671875 C 12.640625 -0.429688 12.585938 -0.257812 12.484375 -0.15625 C 12.378906 -0.0507812 12.207031 0 11.96875 0 L 9.140625 0 C 8.890625 0 8.707031 -0.0507812 8.59375 -0.15625 C 8.476562 -0.257812 8.421875 -0.429688 8.421875 -0.671875 L 8.421875 -3.296875 L 5.109375 -3.296875 Z M 5.109375 -0.671875 "/></g></g></g><g fill="#ff00ff" fill-opacity="1"><g transform="translate(63.622926, 20.882096)"><g><path d="M 4.75 0 L 1.96875 0 C 1.726562 0 1.554688 -0.0507812 1.453125 -0.15625 C 1.347656 -0.257812 1.296875 -0.429688 1.296875 -0.671875 L 1.296875 -12.796875 C 1.296875 -13.023438 1.347656 -13.191406 1.453125 -13.296875 C 1.554688 -13.410156 1.726562 -13.46875 1.96875 -13.46875 L 4.96875 -13.46875 C 5.175781 -13.46875 5.34375 -13.421875 5.46875 -13.328125 C 5.601562 -13.242188 5.722656 -13.101562 5.828125 -12.90625 L 7.515625 -9.859375 C 7.578125 -9.742188 7.628906 -9.660156 7.671875 -9.609375 C 7.722656 -9.554688 7.785156 -9.53125 7.859375 -9.53125 L 8.03125 -9.53125 C 8.101562 -9.53125 8.160156 -9.554688 8.203125 -9.609375 C 8.242188 -9.660156 8.296875 -9.742188 8.359375 -9.859375 L 10.03125 -12.90625 C 10.132812 -13.101562 10.253906 -13.242188 10.390625 -13.328125 C 10.523438 -13.421875 10.691406 -13.46875 10.890625 -13.46875 L 13.921875 -13.46875 C 14.148438 -13.46875 14.316406 -13.410156 14.421875 -13.296875 C 14.535156 -13.191406 14.59375 -13.023438 14.59375 -12.796875 L 14.59375 -0.671875 C 14.59375 -0.429688 14.535156 -0.257812 14.421875 -0.15625 C 14.316406 -0.0507812 14.148438 0 13.921875 0 L 11.03125 0 C 10.789062 0 10.617188 -0.0507812 10.515625 -0.15625 C 10.410156 -0.257812 10.359375 -0.429688 10.359375 -0.671875 L 10.359375 -7.25 L 9.265625 -5.21875 C 9.148438 -5.007812 9.015625 -4.859375 8.859375 -4.765625 C 8.703125 -4.671875 8.503906 -4.625 8.265625 -4.625 L 7.515625 -4.625 C 7.273438 -4.625 7.078125 -4.671875 6.921875 -4.765625 C 6.773438 -4.859375 6.644531 -5.007812 6.53125 -5.21875 L 5.421875 -7.25 L 5.421875 -0.671875 C 5.421875 -0.429688 5.367188 -0.257812 5.265625 -0.15625 C 5.160156 -0.0507812 4.988281 0 4.75 0 Z M 4.75 0 "/></g></g></g><g fill="#ff00ff" fill-opacity="1"><g transform="translate(79.501161, 20.882096)"><g><path d="M 10.640625 0 L 1.96875 0 C 1.726562 0 1.554688 -0.0507812 1.453125 -0.15625 C 1.347656 -0.257812 1.296875 -0.429688 1.296875 -0.671875 L 1.296875 -12.796875 C 1.296875 -13.023438 1.347656 -13.191406 1.453125 -13.296875 C 1.554688 -13.410156 1.726562 -13.46875 1.96875 -13.46875 L 10.640625 -13.46875 C 10.878906 -13.46875 11.050781 -13.410156 11.15625 -13.296875 C 11.257812 -13.191406 11.3125 -13.023438 11.3125 -12.796875 L 11.3125 -10.609375 C 11.3125 -10.367188 11.257812 -10.195312 11.15625 -10.09375 C 11.050781 -9.988281 10.878906 -9.9375 10.640625 -9.9375 L 5.484375 -9.9375 L 5.484375 -8.484375 L 9.125 -8.484375 C 9.363281 -8.484375 9.535156 -8.429688 9.640625 -8.328125 C 9.742188 -8.222656 9.796875 -8.050781 9.796875 -7.8125 L 9.796875 -5.8125 C 9.796875 -5.582031 9.742188 -5.410156 9.640625 -5.296875 C 9.535156 -5.191406 9.363281 -5.140625 9.125 -5.140625 L 5.484375 -5.140625 L 5.484375 -3.53125 L 10.640625 -3.53125 C 10.878906 -3.53125 11.050781 -3.476562 11.15625 -3.375 C 11.257812 -3.269531 11.3125 -3.097656 11.3125 -2.859375 L 11.3125 -0.671875 C 11.3125 -0.429688 11.257812 -0.257812 11.15625 -0.15625 C 11.050781 -0.0507812 10.878906 0 10.640625 0 Z M 10.640625 0 "/></g></g></g><g fill="#00ffff" fill-opacity="1"><g transform="translate(37.703904, 19.973028)"><g><path d="M 11.578125 0 L 5.6875 0 C 4.125 0 2.960938 -0.3125 2.203125 -0.9375 C 1.453125 -1.5625 1.078125 -2.519531 1.078125 -3.8125 L 1.078125 -9.65625 C 1.078125 -10.945312 1.453125 -11.90625 2.203125 -12.53125 C 2.960938 -13.15625 4.125 -13.46875 5.6875 -13.46875 L 10.359375 -13.46875 C 10.597656 -13.46875 10.769531 -13.410156 10.875 -13.296875 C 10.976562 -13.191406 11.03125 -13.023438 11.03125 -12.796875 L 11.03125 -10.53125 C 11.03125 -10.289062 10.976562 -10.117188 10.875 -10.015625 C 10.769531 -9.910156 10.597656 -9.859375 10.359375 -9.859375 L 6.46875 -9.859375 C 6.082031 -9.859375 5.796875 -9.78125 5.609375 -9.625 C 5.421875 -9.46875 5.328125 -9.234375 5.328125 -8.921875 L 5.328125 -4.453125 C 5.328125 -4.140625 5.398438 -3.90625 5.546875 -3.75 C 5.691406 -3.601562 5.90625 -3.53125 6.1875 -3.53125 L 8 -3.53125 L 8 -6.453125 C 8 -6.691406 8.050781 -6.863281 8.15625 -6.96875 C 8.269531 -7.070312 8.441406 -7.125 8.671875 -7.125 L 11.578125 -7.125 C 11.816406 -7.125 11.988281 -7.070312 12.09375 -6.96875 C 12.195312 -6.863281 12.25 -6.691406 12.25 -6.453125 L 12.25 -0.671875 C 12.25 -0.429688 12.195312 -0.257812 12.09375 -0.15625 C 11.988281 -0.0507812 11.816406 0 11.578125 0 Z M 11.578125 0 "/></g></g></g><g fill="#00ffff" fill-opacity="1"><g transform="translate(50.945116, 19.973028)"><g><path d="M 6.171875 -9.53125 L 5.296875 -6.703125 L 8.234375 -6.703125 L 7.34375 -9.53125 C 7.300781 -9.644531 7.25 -9.726562 7.1875 -9.78125 C 7.132812 -9.832031 7.070312 -9.859375 7 -9.859375 L 6.53125 -9.859375 C 6.457031 -9.859375 6.390625 -9.832031 6.328125 -9.78125 C 6.273438 -9.726562 6.222656 -9.644531 6.171875 -9.53125 Z M 5.109375 -0.671875 C 5.109375 -0.429688 5.050781 -0.257812 4.9375 -0.15625 C 4.832031 -0.0507812 4.664062 0 4.4375 0 L 1.6875 0 C 1.445312 0 1.273438 -0.0507812 1.171875 -0.15625 C 1.066406 -0.257812 1.015625 -0.429688 1.015625 -0.671875 L 1.015625 -5.609375 C 1.015625 -5.984375 1.070312 -6.410156 1.1875 -6.890625 C 1.300781 -7.378906 1.484375 -7.953125 1.734375 -8.609375 L 3.359375 -12.84375 C 3.441406 -13.0625 3.5625 -13.21875 3.71875 -13.3125 C 3.875 -13.414062 4.078125 -13.46875 4.328125 -13.46875 L 9.359375 -13.46875 C 9.585938 -13.46875 9.78125 -13.414062 9.9375 -13.3125 C 10.09375 -13.21875 10.207031 -13.0625 10.28125 -12.84375 L 11.90625 -8.609375 C 12.15625 -7.953125 12.335938 -7.378906 12.453125 -6.890625 C 12.578125 -6.410156 12.640625 -5.984375 12.640625 -5.609375 L 12.640625 -0.671875 C 12.640625 -0.429688 12.585938 -0.257812 12.484375 -0.15625 C 12.378906 -0.0507812 12.207031 0 11.96875 0 L 9.140625 0 C 8.890625 0 8.707031 -0.0507812 8.59375 -0.15625 C 8.476562 -0.257812 8.421875 -0.429688 8.421875 -0.671875 L 8.421875 -3.296875 L 5.109375 -3.296875 Z M 5.109375 -0.671875 "/></g></g></g><g fill="#00ffff" fill-opacity="1"><g transform="translate(64.597781, 19.973028)"><g><path d="M 4.75 0 L 1.96875 0 C 1.726562 0 1.554688 -0.0507812 1.453125 -0.15625 C 1.347656 -0.257812 1.296875 -0.429688 1.296875 -0.671875 L 1.296875 -12.796875 C 1.296875 -13.023438 1.347656 -13.191406 1.453125 -13.296875 C 1.554688 -13.410156 1.726562 -13.46875 1.96875 -13.46875 L 4.96875 -13.46875 C 5.175781 -13.46875 5.34375 -13.421875 5.46875 -13.328125 C 5.601562 -13.242188 5.722656 -13.101562 5.828125 -12.90625 L 7.515625 -9.859375 C 7.578125 -9.742188 7.628906 -9.660156 7.671875 -9.609375 C 7.722656 -9.554688 7.785156 -9.53125 7.859375 -9.53125 L 8.03125 -9.53125 C 8.101562 -9.53125 8.160156 -9.554688 8.203125 -9.609375 C 8.242188 -9.660156 8.296875 -9.742188 8.359375 -9.859375 L 10.03125 -12.90625 C 10.132812 -13.101562 10.253906 -13.242188 10.390625 -13.328125 C 10.523438 -13.421875 10.691406 -13.46875 10.890625 -13.46875 L 13.921875 -13.46875 C 14.148438 -13.46875 14.316406 -13.410156 14.421875 -13.296875 C 14.535156 -13.191406 14.59375 -13.023438 14.59375 -12.796875 L 14.59375 -0.671875 C 14.59375 -0.429688 14.535156 -0.257812 14.421875 -0.15625 C 14.316406 -0.0507812 14.148438 0 13.921875 0 L 11.03125 0 C 10.789062 0 10.617188 -0.0507812 10.515625 -0.15625 C 10.410156 -0.257812 10.359375 -0.429688 10.359375 -0.671875 L 10.359375 -7.25 L 9.265625 -5.21875 C 9.148438 -5.007812 9.015625 -4.859375 8.859375 -4.765625 C 8.703125 -4.671875 8.503906 -4.625 8.265625 -4.625 L 7.515625 -4.625 C 7.273438 -4.625 7.078125 -4.671875 6.921875 -4.765625 C 6.773438 -4.859375 6.644531 -5.007812 6.53125 -5.21875 L 5.421875 -7.25 L 5.421875 -0.671875 C 5.421875 -0.429688 5.367188 -0.257812 5.265625 -0.15625 C 5.160156 -0.0507812 4.988281 0 4.75 0 Z M 4.75 0 "/></g></g></g><g fill="#00ffff" fill-opacity="1"><g transform="translate(80.476016, 19.973028)"><g><path d="M 10.640625 0 L 1.96875 0 C 1.726562 0 1.554688 -0.0507812 1.453125 -0.15625 C 1.347656 -0.257812 1.296875 -0.429688 1.296875 -0.671875 L 1.296875 -12.796875 C 1.296875 -13.023438 1.347656 -13.191406 1.453125 -13.296875 C 1.554688 -13.410156 1.726562 -13.46875 1.96875 -13.46875 L 10.640625 -13.46875 C 10.878906 -13.46875 11.050781 -13.410156 11.15625 -13.296875 C 11.257812 -13.191406 11.3125 -13.023438 11.3125 -12.796875 L 11.3125 -10.609375 C 11.3125 -10.367188 11.257812 -10.195312 11.15625 -10.09375 C 11.050781 -9.988281 10.878906 -9.9375 10.640625 -9.9375 L 5.484375 -9.9375 L 5.484375 -8.484375 L 9.125 -8.484375 C 9.363281 -8.484375 9.535156 -8.429688 9.640625 -8.328125 C 9.742188 -8.222656 9.796875 -8.050781 9.796875 -7.8125 L 9.796875 -5.8125 C 9.796875 -5.582031 9.742188 -5.410156 9.640625 -5.296875 C 9.535156 -5.191406 9.363281 -5.140625 9.125 -5.140625 L 5.484375 -5.140625 L 5.484375 -3.53125 L 10.640625 -3.53125 C 10.878906 -3.53125 11.050781 -3.476562 11.15625 -3.375 C 11.257812 -3.269531 11.3125 -3.097656 11.3125 -2.859375 L 11.3125 -0.671875 C 11.3125 -0.429688 11.257812 -0.257812 11.15625 -0.15625 C 11.050781 -0.0507812 10.878906 0 10.640625 0 Z M 10.640625 0 "/></g></g></g><g fill="#7843e6" fill-opacity="1"><g transform="translate(37.216476, 20.427562)"><g><path d="M 11.578125 0 L 5.6875 0 C 4.125 0 2.960938 -0.3125 2.203125 -0.9375 C 1.453125 -1.5625 1.078125 -2.519531 1.078125 -3.8125 L 1.078125 -9.65625 C 1.078125 -10.945312 1.453125 -11.90625 2.203125 -12.53125 C 2.960938 -13.15625 4.125 -13.46875 5.6875 -13.46875 L 10.359375 -13.46875 C 10.597656 -13.46875 10.769531 -13.410156 10.875 -13.296875 C 10.976562 -13.191406 11.03125 -13.023438 11.03125 -12.796875 L 11.03125 -10.53125 C 11.03125 -10.289062 10.976562 -10.117188 10.875 -10.015625 C 10.769531 -9.910156 10.597656 -9.859375 10.359375 -9.859375 L 6.46875 -9.859375 C 6.082031 -9.859375 5.796875 -9.78125 5.609375 -9.625 C 5.421875 -9.46875 5.328125 -9.234375 5.328125 -8.921875 L 5.328125 -4.453125 C 5.328125 -4.140625 5.398438 -3.90625 5.546875 -3.75 C 5.691406 -3.601562 5.90625 -3.53125 6.1875 -3.53125 L 8 -3.53125 L 8 -6.453125 C 8 -6.691406 8.050781 -6.863281 8.15625 -6.96875 C 8.269531 -7.070312 8.441406 -7.125 8.671875 -7.125 L 11.578125 -7.125 C 11.816406 -7.125 11.988281 -7.070312 12.09375 -6.96875 C 12.195312 -6.863281 12.25 -6.691406 12.25 -6.453125 L 12.25 -0.671875 C 12.25 -0.429688 12.195312 -0.257812 12.09375 -0.15625 C 11.988281 -0.0507812 11.816406 0 11.578125 0 Z M 11.578125 0 "/></g></g></g><g fill="#7843e6" fill-opacity="1"><g transform="translate(50.457688, 20.427562)"><g><path d="M 6.171875 -9.53125 L 5.296875 -6.703125 L 8.234375 -6.703125 L 7.34375 -9.53125 C 7.300781 -9.644531 7.25 -9.726562 7.1875 -9.78125 C 7.132812 -9.832031 7.070312 -9.859375 7 -9.859375 L 6.53125 -9.859375 C 6.457031 -9.859375 6.390625 -9.832031 6.328125 -9.78125 C 6.273438 -9.726562 6.222656 -9.644531 6.171875 -9.53125 Z M 5.109375 -0.671875 C 5.109375 -0.429688 5.050781 -0.257812 4.9375 -0.15625 C 4.832031 -0.0507812 4.664062 0 4.4375 0 L 1.6875 0 C 1.445312 0 1.273438 -0.0507812 1.171875 -0.15625 C 1.066406 -0.257812 1.015625 -0.429688 1.015625 -0.671875 L 1.015625 -5.609375 C 1.015625 -5.984375 1.070312 -6.410156 1.1875 -6.890625 C 1.300781 -7.378906 1.484375 -7.953125 1.734375 -8.609375 L 3.359375 -12.84375 C 3.441406 -13.0625 3.5625 -13.21875 3.71875 -13.3125 C 3.875 -13.414062 4.078125 -13.46875 4.328125 -13.46875 L 9.359375 -13.46875 C 9.585938 -13.46875 9.78125 -13.414062 9.9375 -13.3125 C 10.09375 -13.21875 10.207031 -13.0625 10.28125 -12.84375 L 11.90625 -8.609375 C 12.15625 -7.953125 12.335938 -7.378906 12.453125 -6.890625 C 12.578125 -6.410156 12.640625 -5.984375 12.640625 -5.609375 L 12.640625 -0.671875 C 12.640625 -0.429688 12.585938 -0.257812 12.484375 -0.15625 C 12.378906 -0.0507812 12.207031 0 11.96875 0 L 9.140625 0 C 8.890625 0 8.707031 -0.0507812 8.59375 -0.15625 C 8.476562 -0.257812 8.421875 -0.429688 8.421875 -0.671875 L 8.421875 -3.296875 L 5.109375 -3.296875 Z M 5.109375 -0.671875 "/></g></g></g><g fill="#7843e6" fill-opacity="1"><g transform="translate(64.110353, 20.427562)"><g><path d="M 4.75 0 L 1.96875 0 C 1.726562 0 1.554688 -0.0507812 1.453125 -0.15625 C 1.347656 -0.257812 1.296875 -0.429688 1.296875 -0.671875 L 1.296875 -12.796875 C 1.296875 -13.023438 1.347656 -13.191406 1.453125 -13.296875 C 1.554688 -13.410156 1.726562 -13.46875 1.96875 -13.46875 L 4.96875 -13.46875 C 5.175781 -13.46875 5.34375 -13.421875 5.46875 -13.328125 C 5.601562 -13.242188 5.722656 -13.101562 5.828125 -12.90625 L 7.515625 -9.859375 C 7.578125 -9.742188 7.628906 -9.660156 7.671875 -9.609375 C 7.722656 -9.554688 7.785156 -9.53125 7.859375 -9.53125 L 8.03125 -9.53125 C 8.101562 -9.53125 8.160156 -9.554688 8.203125 -9.609375 C 8.242188 -9.660156 8.296875 -9.742188 8.359375 -9.859375 L 10.03125 -12.90625 C 10.132812 -13.101562 10.253906 -13.242188 10.390625 -13.328125 C 10.523438 -13.421875 10.691406 -13.46875 10.890625 -13.46875 L 13.921875 -13.46875 C 14.148438 -13.46875 14.316406 -13.410156 14.421875 -13.296875 C 14.535156 -13.191406 14.59375 -13.023438 14.59375 -12.796875 L 14.59375 -0.671875 C 14.59375 -0.429688 14.535156 -0.257812 14.421875 -0.15625 C 14.316406 -0.0507812 14.148438 0 13.921875 0 L 11.03125 0 C 10.789062 0 10.617188 -0.0507812 10.515625 -0.15625 C 10.410156 -0.257812 10.359375 -0.429688 10.359375 -0.671875 L 10.359375 -7.25 L 9.265625 -5.21875 C 9.148438 -5.007812 9.015625 -4.859375 8.859375 -4.765625 C 8.703125 -4.671875 8.503906 -4.625 8.265625 -4.625 L 7.515625 -4.625 C 7.273438 -4.625 7.078125 -4.671875 6.921875 -4.765625 C 6.773438 -4.859375 6.644531 -5.007812 6.53125 -5.21875 L 5.421875 -7.25 L 5.421875 -0.671875 C 5.421875 -0.429688 5.367188 -0.257812 5.265625 -0.15625 C 5.160156 -0.0507812 4.988281 0 4.75 0 Z M 4.75 0 "/></g></g></g><g fill="#7843e6" fill-opacity="1"><g transform="translate(79.988589, 20.427562)"><g><path d="M 10.640625 0 L 1.96875 0 C 1.726562 0 1.554688 -0.0507812 1.453125 -0.15625 C 1.347656 -0.257812 1.296875 -0.429688 1.296875 -0.671875 L 1.296875 -12.796875 C 1.296875 -13.023438 1.347656 -13.191406 1.453125 -13.296875 C 1.554688 -13.410156 1.726562 -13.46875 1.96875 -13.46875 L 10.640625 -13.46875 C 10.878906 -13.46875 11.050781 -13.410156 11.15625 -13.296875 C 11.257812 -13.191406 11.3125 -13.023438 11.3125 -12.796875 L 11.3125 -10.609375 C 11.3125 -10.367188 11.257812 -10.195312 11.15625 -10.09375 C 11.050781 -9.988281 10.878906 -9.9375 10.640625 -9.9375 L 5.484375 -9.9375 L 5.484375 -8.484375 L 9.125 -8.484375 C 9.363281 -8.484375 9.535156 -8.429688 9.640625 -8.328125 C 9.742188 -8.222656 9.796875 -8.050781 9.796875 -7.8125 L 9.796875 -5.8125 C 9.796875 -5.582031 9.742188 -5.410156 9.640625 -5.296875 C 9.535156 -5.191406 9.363281 -5.140625 9.125 -5.140625 L 5.484375 -5.140625 L 5.484375 -3.53125 L 10.640625 -3.53125 C 10.878906 -3.53125 11.050781 -3.476562 11.15625 -3.375 C 11.257812 -3.269531 11.3125 -3.097656 11.3125 -2.859375 L 11.3125 -0.671875 C 11.3125 -0.429688 11.257812 -0.257812 11.15625 -0.15625 C 11.050781 -0.0507812 10.878906 0 10.640625 0 Z M 10.640625 0 "/></g></g></g><g fill="#ff00ff" fill-opacity="1"><g transform="translate(91.730184, 20.882096)"><g><path d="M 10.8125 0 L 1.53125 0 C 1.289062 0 1.117188 -0.0507812 1.015625 -0.15625 C 0.910156 -0.257812 0.859375 -0.429688 0.859375 -0.671875 L 0.859375 -3.171875 C 0.859375 -3.410156 0.894531 -3.617188 0.96875 -3.796875 C 1.039062 -3.984375 1.160156 -4.164062 1.328125 -4.34375 L 5.875 -9.859375 L 1.875 -9.859375 C 1.632812 -9.859375 1.460938 -9.910156 1.359375 -10.015625 C 1.253906 -10.117188 1.203125 -10.289062 1.203125 -10.53125 L 1.203125 -12.796875 C 1.203125 -13.023438 1.253906 -13.191406 1.359375 -13.296875 C 1.460938 -13.410156 1.632812 -13.46875 1.875 -13.46875 L 10.46875 -13.46875 C 10.707031 -13.46875 10.878906 -13.410156 10.984375 -13.296875 C 11.085938 -13.191406 11.140625 -13.023438 11.140625 -12.796875 L 11.140625 -10 C 11.140625 -9.75 11.101562 -9.535156 11.03125 -9.359375 C 10.957031 -9.179688 10.835938 -9.003906 10.671875 -8.828125 L 6.34375 -3.578125 L 10.8125 -3.578125 C 11.050781 -3.578125 11.222656 -3.519531 11.328125 -3.40625 C 11.429688 -3.300781 11.484375 -3.132812 11.484375 -2.90625 L 11.484375 -0.671875 C 11.484375 -0.429688 11.429688 -0.257812 11.328125 -0.15625 C 11.222656 -0.0507812 11.050781 0 10.8125 0 Z M 10.8125 0 "/></g></g></g><g fill="#ff00ff" fill-opacity="1"><g transform="translate(104.073689, 20.882096)"><g><path d="M 12.703125 -3.53125 C 12.703125 -2.957031 12.613281 -2.4375 12.4375 -1.96875 C 12.269531 -1.5 11.972656 -1.097656 11.546875 -0.765625 C 11.117188 -0.441406 10.523438 -0.1875 9.765625 0 C 9.015625 0.1875 8.0625 0.28125 6.90625 0.28125 C 5.738281 0.28125 4.773438 0.1875 4.015625 0 C 3.253906 -0.1875 2.660156 -0.441406 2.234375 -0.765625 C 1.804688 -1.097656 1.503906 -1.5 1.328125 -1.96875 C 1.160156 -2.4375 1.078125 -2.957031 1.078125 -3.53125 L 1.078125 -9.90625 C 1.078125 -10.476562 1.160156 -11 1.328125 -11.46875 C 1.503906 -11.9375 1.804688 -12.335938 2.234375 -12.671875 C 2.660156 -13.015625 3.253906 -13.28125 4.015625 -13.46875 C 4.773438 -13.65625 5.738281 -13.75 6.90625 -13.75 C 8.0625 -13.75 9.015625 -13.65625 9.765625 -13.46875 C 10.523438 -13.28125 11.117188 -13.015625 11.546875 -12.671875 C 11.972656 -12.335938 12.269531 -11.9375 12.4375 -11.46875 C 12.613281 -11 12.703125 -10.476562 12.703125 -9.90625 Z M 5.328125 -4.203125 C 5.328125 -3.953125 5.421875 -3.742188 5.609375 -3.578125 C 5.796875 -3.410156 6.226562 -3.328125 6.90625 -3.328125 C 7.570312 -3.328125 8 -3.410156 8.1875 -3.578125 C 8.375 -3.742188 8.46875 -3.953125 8.46875 -4.203125 L 8.46875 -9.234375 C 8.46875 -9.472656 8.375 -9.675781 8.1875 -9.84375 C 8 -10.007812 7.570312 -10.09375 6.90625 -10.09375 C 6.226562 -10.09375 5.796875 -10.007812 5.609375 -9.84375 C 5.421875 -9.675781 5.328125 -9.472656 5.328125 -9.234375 Z M 5.328125 -4.203125 "/></g></g></g><g fill="#ff00ff" fill-opacity="1"><g transform="translate(117.857261, 20.882096)"><g><path d="M 4.765625 0 L 1.96875 0 C 1.726562 0 1.554688 -0.0507812 1.453125 -0.15625 C 1.347656 -0.257812 1.296875 -0.429688 1.296875 -0.671875 L 1.296875 -12.796875 C 1.296875 -13.023438 1.347656 -13.191406 1.453125 -13.296875 C 1.554688 -13.410156 1.726562 -13.46875 1.96875 -13.46875 L 3.90625 -13.46875 C 4.144531 -13.46875 4.347656 -13.425781 4.515625 -13.34375 C 4.679688 -13.269531 4.847656 -13.144531 5.015625 -12.96875 L 8.640625 -8.8125 L 8.640625 -12.796875 C 8.640625 -13.023438 8.691406 -13.191406 8.796875 -13.296875 C 8.898438 -13.410156 9.070312 -13.46875 9.3125 -13.46875 L 12.125 -13.46875 C 12.351562 -13.46875 12.519531 -13.410156 12.625 -13.296875 C 12.738281 -13.191406 12.796875 -13.023438 12.796875 -12.796875 L 12.796875 -0.671875 C 12.796875 -0.429688 12.738281 -0.257812 12.625 -0.15625 C 12.519531 -0.0507812 12.351562 0 12.125 0 L 9.3125 0 C 9.070312 0 8.898438 -0.0507812 8.796875 -0.15625 C 8.691406 -0.257812 8.640625 -0.429688 8.640625 -0.671875 L 8.640625 -2.96875 L 5.4375 -6.84375 L 5.4375 -0.671875 C 5.4375 -0.429688 5.382812 -0.257812 5.28125 -0.15625 C 5.175781 -0.0507812 5.003906 0 4.765625 0 Z M 4.765625 0 "/></g></g></g><g fill="#ff00ff" fill-opacity="1"><g transform="translate(131.940072, 20.882096)"><g><path d="M 10.640625 0 L 1.96875 0 C 1.726562 0 1.554688 -0.0507812 1.453125 -0.15625 C 1.347656 -0.257812 1.296875 -0.429688 1.296875 -0.671875 L 1.296875 -12.796875 C 1.296875 -13.023438 1.347656 -13.191406 1.453125 -13.296875 C 1.554688 -13.410156 1.726562 -13.46875 1.96875 -13.46875 L 10.640625 -13.46875 C 10.878906 -13.46875 11.050781 -13.410156 11.15625 -13.296875 C 11.257812 -13.191406 11.3125 -13.023438 11.3125 -12.796875 L 11.3125 -10.609375 C 11.3125 -10.367188 11.257812 -10.195312 11.15625 -10.09375 C 11.050781 -9.988281 10.878906 -9.9375 10.640625 -9.9375 L 5.484375 -9.9375 L 5.484375 -8.484375 L 9.125 -8.484375 C 9.363281 -8.484375 9.535156 -8.429688 9.640625 -8.328125 C 9.742188 -8.222656 9.796875 -8.050781 9.796875 -7.8125 L 9.796875 -5.8125 C 9.796875 -5.582031 9.742188 -5.410156 9.640625 -5.296875 C 9.535156 -5.191406 9.363281 -5.140625 9.125 -5.140625 L 5.484375 -5.140625 L 5.484375 -3.53125 L 10.640625 -3.53125 C 10.878906 -3.53125 11.050781 -3.476562 11.15625 -3.375 C 11.257812 -3.269531 11.3125 -3.097656 11.3125 -2.859375 L 11.3125 -0.671875 C 11.3125 -0.429688 11.257812 -0.257812 11.15625 -0.15625 C 11.050781 -0.0507812 10.878906 0 10.640625 0 Z M 10.640625 0 "/></g></g></g><g fill="#00ffff" fill-opacity="1"><g transform="translate(92.70504, 19.973028)"><g><path d="M 10.8125 0 L 1.53125 0 C 1.289062 0 1.117188 -0.0507812 1.015625 -0.15625 C 0.910156 -0.257812 0.859375 -0.429688 0.859375 -0.671875 L 0.859375 -3.171875 C 0.859375 -3.410156 0.894531 -3.617188 0.96875 -3.796875 C 1.039062 -3.984375 1.160156 -4.164062 1.328125 -4.34375 L 5.875 -9.859375 L 1.875 -9.859375 C 1.632812 -9.859375 1.460938 -9.910156 1.359375 -10.015625 C 1.253906 -10.117188 1.203125 -10.289062 1.203125 -10.53125 L 1.203125 -12.796875 C 1.203125 -13.023438 1.253906 -13.191406 1.359375 -13.296875 C 1.460938 -13.410156 1.632812 -13.46875 1.875 -13.46875 L 10.46875 -13.46875 C 10.707031 -13.46875 10.878906 -13.410156 10.984375 -13.296875 C 11.085938 -13.191406 11.140625 -13.023438 11.140625 -12.796875 L 11.140625 -10 C 11.140625 -9.75 11.101562 -9.535156 11.03125 -9.359375 C 10.957031 -9.179688 10.835938 -9.003906 10.671875 -8.828125 L 6.34375 -3.578125 L 10.8125 -3.578125 C 11.050781 -3.578125 11.222656 -3.519531 11.328125 -3.40625 C 11.429688 -3.300781 11.484375 -3.132812 11.484375 -2.90625 L 11.484375 -0.671875 C 11.484375 -0.429688 11.429688 -0.257812 11.328125 -0.15625 C 11.222656 -0.0507812 11.050781 0 10.8125 0 Z M 10.8125 0 "/></g></g></g><g fill="#00ffff" fill-opacity="1"><g transform="translate(105.048545, 19.973028)"><g><path d="M 12.703125 -3.53125 C 12.703125 -2.957031 12.613281 -2.4375 12.4375 -1.96875 C 12.269531 -1.5 11.972656 -1.097656 11.546875 -0.765625 C 11.117188 -0.441406 10.523438 -0.1875 9.765625 0 C 9.015625 0.1875 8.0625 0.28125 6.90625 0.28125 C 5.738281 0.28125 4.773438 0.1875 4.015625 0 C 3.253906 -0.1875 2.660156 -0.441406 2.234375 -0.765625 C 1.804688 -1.097656 1.503906 -1.5 1.328125 -1.96875 C 1.160156 -2.4375 1.078125 -2.957031 1.078125 -3.53125 L 1.078125 -9.90625 C 1.078125 -10.476562 1.160156 -11 1.328125 -11.46875 C 1.503906 -11.9375 1.804688 -12.335938 2.234375 -12.671875 C 2.660156 -13.015625 3.253906 -13.28125 4.015625 -13.46875 C 4.773438 -13.65625 5.738281 -13.75 6.90625 -13.75 C 8.0625 -13.75 9.015625 -13.65625 9.765625 -13.46875 C 10.523438 -13.28125 11.117188 -13.015625 11.546875 -12.671875 C 11.972656 -12.335938 12.269531 -11.9375 12.4375 -11.46875 C 12.613281 -11 12.703125 -10.476562 12.703125 -9.90625 Z M 5.328125 -4.203125 C 5.328125 -3.953125 5.421875 -3.742188 5.609375 -3.578125 C 5.796875 -3.410156 6.226562 -3.328125 6.90625 -3.328125 C 7.570312 -3.328125 8 -3.410156 8.1875 -3.578125 C 8.375 -3.742188 8.46875 -3.953125 8.46875 -4.203125 L 8.46875 -9.234375 C 8.46875 -9.472656 8.375 -9.675781 8.1875 -9.84375 C 8 -10.007812 7.570312 -10.09375 6.90625 -10.09375 C 6.226562 -10.09375 5.796875 -10.007812 5.609375 -9.84375 C 5.421875 -9.675781 5.328125 -9.472656 5.328125 -9.234375 Z M 5.328125 -4.203125 "/></g></g></g><g fill="#00ffff" fill-opacity="1"><g transform="translate(118.832117, 19.973028)"><g><path d="M 4.765625 0 L 1.96875 0 C 1.726562 0 1.554688 -0.0507812 1.453125 -0.15625 C 1.347656 -0.257812 1.296875 -0.429688 1.296875 -0.671875 L 1.296875 -12.796875 C 1.296875 -13.023438 1.347656 -13.191406 1.453125 -13.296875 C 1.554688 -13.410156 1.726562 -13.46875 1.96875 -13.46875 L 3.90625 -13.46875 C 4.144531 -13.46875 4.347656 -13.425781 4.515625 -13.34375 C 4.679688 -13.269531 4.847656 -13.144531 5.015625 -12.96875 L 8.640625 -8.8125 L 8.640625 -12.796875 C 8.640625 -13.023438 8.691406 -13.191406 8.796875 -13.296875 C 8.898438 -13.410156 9.070312 -13.46875 9.3125 -13.46875 L 12.125 -13.46875 C 12.351562 -13.46875 12.519531 -13.410156 12.625 -13.296875 C 12.738281 -13.191406 12.796875 -13.023438 12.796875 -12.796875 L 12.796875 -0.671875 C 12.796875 -0.429688 12.738281 -0.257812 12.625 -0.15625 C 12.519531 -0.0507812 12.351562 0 12.125 0 L 9.3125 0 C 9.070312 0 8.898438 -0.0507812 8.796875 -0.15625 C 8.691406 -0.257812 8.640625 -0.429688 8.640625 -0.671875 L 8.640625 -2.96875 L 5.4375 -6.84375 L 5.4375 -0.671875 C 5.4375 -0.429688 5.382812 -0.257812 5.28125 -0.15625 C 5.175781 -0.0507812 5.003906 0 4.765625 0 Z M 4.765625 0 "/></g></g></g><g fill="#00ffff" fill-opacity="1"><g transform="translate(132.914928, 19.973028)"><g><path d="M 10.640625 0 L 1.96875 0 C 1.726562 0 1.554688 -0.0507812 1.453125 -0.15625 C 1.347656 -0.257812 1.296875 -0.429688 1.296875 -0.671875 L 1.296875 -12.796875 C 1.296875 -13.023438 1.347656 -13.191406 1.453125 -13.296875 C 1.554688 -13.410156 1.726562 -13.46875 1.96875 -13.46875 L 10.640625 -13.46875 C 10.878906 -13.46875 11.050781 -13.410156 11.15625 -13.296875 C 11.257812 -13.191406 11.3125 -13.023438 11.3125 -12.796875 L 11.3125 -10.609375 C 11.3125 -10.367188 11.257812 -10.195312 11.15625 -10.09375 C 11.050781 -9.988281 10.878906 -9.9375 10.640625 -9.9375 L 5.484375 -9.9375 L 5.484375 -8.484375 L 9.125 -8.484375 C 9.363281 -8.484375 9.535156 -8.429688 9.640625 -8.328125 C 9.742188 -8.222656 9.796875 -8.050781 9.796875 -7.8125 L 9.796875 -5.8125 C 9.796875 -5.582031 9.742188 -5.410156 9.640625 -5.296875 C 9.535156 -5.191406 9.363281 -5.140625 9.125 -5.140625 L 5.484375 -5.140625 L 5.484375 -3.53125 L 10.640625 -3.53125 C 10.878906 -3.53125 11.050781 -3.476562 11.15625 -3.375 C 11.257812 -3.269531 11.3125 -3.097656 11.3125 -2.859375 L 11.3125 -0.671875 C 11.3125 -0.429688 11.257812 -0.257812 11.15625 -0.15625 C 11.050781 -0.0507812 10.878906 0 10.640625 0 Z M 10.640625 0 "/></g></g></g><g fill="#ff3131" fill-opacity="1"><g transform="translate(92.217612, 20.427562)"><g><path d="M 10.8125 0 L 1.53125 0 C 1.289062 0 1.117188 -0.0507812 1.015625 -0.15625 C 0.910156 -0.257812 0.859375 -0.429688 0.859375 -0.671875 L 0.859375 -3.171875 C 0.859375 -3.410156 0.894531 -3.617188 0.96875 -3.796875 C 1.039062 -3.984375 1.160156 -4.164062 1.328125 -4.34375 L 5.875 -9.859375 L 1.875 -9.859375 C 1.632812 -9.859375 1.460938 -9.910156 1.359375 -10.015625 C 1.253906 -10.117188 1.203125 -10.289062 1.203125 -10.53125 L 1.203125 -12.796875 C 1.203125 -13.023438 1.253906 -13.191406 1.359375 -13.296875 C 1.460938 -13.410156 1.632812 -13.46875 1.875 -13.46875 L 10.46875 -13.46875 C 10.707031 -13.46875 10.878906 -13.410156 10.984375 -13.296875 C 11.085938 -13.191406 11.140625 -13.023438 11.140625 -12.796875 L 11.140625 -10 C 11.140625 -9.75 11.101562 -9.535156 11.03125 -9.359375 C 10.957031 -9.179688 10.835938 -9.003906 10.671875 -8.828125 L 6.34375 -3.578125 L 10.8125 -3.578125 C 11.050781 -3.578125 11.222656 -3.519531 11.328125 -3.40625 C 11.429688 -3.300781 11.484375 -3.132812 11.484375 -2.90625 L 11.484375 -0.671875 C 11.484375 -0.429688 11.429688 -0.257812 11.328125 -0.15625 C 11.222656 -0.0507812 11.050781 0 10.8125 0 Z M 10.8125 0 "/></g></g></g><g fill="#ff3131" fill-opacity="1"><g transform="translate(104.561117, 20.427562)"><g><path d="M 12.703125 -3.53125 C 12.703125 -2.957031 12.613281 -2.4375 12.4375 -1.96875 C 12.269531 -1.5 11.972656 -1.097656 11.546875 -0.765625 C 11.117188 -0.441406 10.523438 -0.1875 9.765625 0 C 9.015625 0.1875 8.0625 0.28125 6.90625 0.28125 C 5.738281 0.28125 4.773438 0.1875 4.015625 0 C 3.253906 -0.1875 2.660156 -0.441406 2.234375 -0.765625 C 1.804688 -1.097656 1.503906 -1.5 1.328125 -1.96875 C 1.160156 -2.4375 1.078125 -2.957031 1.078125 -3.53125 L 1.078125 -9.90625 C 1.078125 -10.476562 1.160156 -11 1.328125 -11.46875 C 1.503906 -11.9375 1.804688 -12.335938 2.234375 -12.671875 C 2.660156 -13.015625 3.253906 -13.28125 4.015625 -13.46875 C 4.773438 -13.65625 5.738281 -13.75 6.90625 -13.75 C 8.0625 -13.75 9.015625 -13.65625 9.765625 -13.46875 C 10.523438 -13.28125 11.117188 -13.015625 11.546875 -12.671875 C 11.972656 -12.335938 12.269531 -11.9375 12.4375 -11.46875 C 12.613281 -11 12.703125 -10.476562 12.703125 -9.90625 Z M 5.328125 -4.203125 C 5.328125 -3.953125 5.421875 -3.742188 5.609375 -3.578125 C 5.796875 -3.410156 6.226562 -3.328125 6.90625 -3.328125 C 7.570312 -3.328125 8 -3.410156 8.1875 -3.578125 C 8.375 -3.742188 8.46875 -3.953125 8.46875 -4.203125 L 8.46875 -9.234375 C 8.46875 -9.472656 8.375 -9.675781 8.1875 -9.84375 C 8 -10.007812 7.570312 -10.09375 6.90625 -10.09375 C 6.226562 -10.09375 5.796875 -10.007812 5.609375 -9.84375 C 5.421875 -9.675781 5.328125 -9.472656 5.328125 -9.234375 Z M 5.328125 -4.203125 "/></g></g></g><g fill="#ff3131" fill-opacity="1"><g transform="translate(118.344689, 20.427562)"><g><path d="M 4.765625 0 L 1.96875 0 C 1.726562 0 1.554688 -0.0507812 1.453125 -0.15625 C 1.347656 -0.257812 1.296875 -0.429688 1.296875 -0.671875 L 1.296875 -12.796875 C 1.296875 -13.023438 1.347656 -13.191406 1.453125 -13.296875 C 1.554688 -13.410156 1.726562 -13.46875 1.96875 -13.46875 L 3.90625 -13.46875 C 4.144531 -13.46875 4.347656 -13.425781 4.515625 -13.34375 C 4.679688 -13.269531 4.847656 -13.144531 5.015625 -12.96875 L 8.640625 -8.8125 L 8.640625 -12.796875 C 8.640625 -13.023438 8.691406 -13.191406 8.796875 -13.296875 C 8.898438 -13.410156 9.070312 -13.46875 9.3125 -13.46875 L 12.125 -13.46875 C 12.351562 -13.46875 12.519531 -13.410156 12.625 -13.296875 C 12.738281 -13.191406 12.796875 -13.023438 12.796875 -12.796875 L 12.796875 -0.671875 C 12.796875 -0.429688 12.738281 -0.257812 12.625 -0.15625 C 12.519531 -0.0507812 12.351562 0 12.125 0 L 9.3125 0 C 9.070312 0 8.898438 -0.0507812 8.796875 -0.15625 C 8.691406 -0.257812 8.640625 -0.429688 8.640625 -0.671875 L 8.640625 -2.96875 L 5.4375 -6.84375 L 5.4375 -0.671875 C 5.4375 -0.429688 5.382812 -0.257812 5.28125 -0.15625 C 5.175781 -0.0507812 5.003906 0 4.765625 0 Z M 4.765625 0 "/></g></g></g><g fill="#ff3131" fill-opacity="1"><g transform="translate(132.4275, 20.427562)"><g><path d="M 10.640625 0 L 1.96875 0 C 1.726562 0 1.554688 -0.0507812 1.453125 -0.15625 C 1.347656 -0.257812 1.296875 -0.429688 1.296875 -0.671875 L 1.296875 -12.796875 C 1.296875 -13.023438 1.347656 -13.191406 1.453125 -13.296875 C 1.554688 -13.410156 1.726562 -13.46875 1.96875 -13.46875 L 10.640625 -13.46875 C 10.878906 -13.46875 11.050781 -13.410156 11.15625 -13.296875 C 11.257812 -13.191406 11.3125 -13.023438 11.3125 -12.796875 L 11.3125 -10.609375 C 11.3125 -10.367188 11.257812 -10.195312 11.15625 -10.09375 C 11.050781 -9.988281 10.878906 -9.9375 10.640625 -9.9375 L 5.484375 -9.9375 L 5.484375 -8.484375 L 9.125 -8.484375 C 9.363281 -8.484375 9.535156 -8.429688 9.640625 -8.328125 C 9.742188 -8.222656 9.796875 -8.050781 9.796875 -7.8125 L 9.796875 -5.8125 C 9.796875 -5.582031 9.742188 -5.410156 9.640625 -5.296875 C 9.535156 -5.191406 9.363281 -5.140625 9.125 -5.140625 L 5.484375 -5.140625 L 5.484375 -3.53125 L 10.640625 -3.53125 C 10.878906 -3.53125 11.050781 -3.476562 11.15625 -3.375 C 11.257812 -3.269531 11.3125 -3.097656 11.3125 -2.859375 L 11.3125 -0.671875 C 11.3125 -0.429688 11.257812 -0.257812 11.15625 -0.15625 C 11.050781 -0.0507812 10.878906 0 10.640625 0 Z M 10.640625 0 "/></g></g></g></svg>